<svg width="50" height="50" viewBox="0 0 44 51" fill="none" xmlns="http://www.w3.org/2000/svg">
<path d="M0.589033 0.339508C0.213434 0.339508 0.0256348 0.589907 0.0256348 0.902907V49.7934C0.0256348 50.1064 0.276034 50.3568 0.589033 50.3568H43.2195C43.5325 50.3568 43.7829 50.1064 43.7829 49.7934V0.902907C43.7829 0.527308 43.5325 0.339508 43.2195 0.339508L0.589033 0.339508ZM6.28562 6.59949H37.5855V19.1195H6.28562V6.59949ZM6.28562 25.3794H12.5456V31.6394H6.28562V25.3794ZM18.8056 25.3794H25.0656V31.6394H18.8056V25.3794ZM31.3256 25.3794H37.5855V44.1594H31.3256V25.3794ZM6.28562 37.8994H12.5456V44.1594H6.28562V37.8994ZM18.8056 37.8994H25.0656V44.1594H18.8056V37.8994Z" fill="black"/>
</svg>
